<svg xmlns="http://www.w3.org/2000/svg" width="406.25" height="302.705" viewBox="0 0 406.25 302.705">
  <g id="By_my_car-rafiki_1_" data-name="By my car-rafiki (1)" transform="translate(0 -55)">
    <g id="freepik--background-complete--inject-16" transform="translate(0 55)">
      <rect id="Rectangle_71" data-name="Rectangle 71" width="406.25" height="0.203" transform="translate(0 266.013)" fill="#ebebeb"/>
      <rect id="Rectangle_72" data-name="Rectangle 72" width="26.91" height="0.203" transform="translate(338.634 279.086)" fill="#ebebeb"/>
      <rect id="Rectangle_73" data-name="Rectangle 73" width="7.061" height="0.203" transform="translate(262.056 281.296)" fill="#ebebeb"/>
      <rect id="Rectangle_74" data-name="Rectangle 74" width="15.592" height="0.203" transform="translate(322.23 271.546)" fill="#ebebeb"/>
      <rect id="Rectangle_75" data-name="Rectangle 75" width="35.092" height="0.203" transform="translate(42.624 272.911)" fill="#ebebeb"/>
      <rect id="Rectangle_76" data-name="Rectangle 76" width="5.143" height="0.203" transform="translate(84.955 272.911)" fill="#ebebeb"/>
      <rect id="Rectangle_77" data-name="Rectangle 77" width="76.115" height="0.203" transform="translate(106.819 276.34)" fill="#ebebeb"/>
      <path id="Path_36" data-name="Path 36" d="M199.727,284.775H42.841a4.639,4.639,0,0,1-4.631-4.639V59.6A4.639,4.639,0,0,1,42.841,55H199.727a4.639,4.639,0,0,1,4.639,4.639v220.5A4.639,4.639,0,0,1,199.727,284.775ZM42.841,55.162A4.436,4.436,0,0,0,38.413,59.6V280.136a4.436,4.436,0,0,0,4.428,4.436H199.727a4.444,4.444,0,0,0,4.436-4.436V59.6a4.444,4.444,0,0,0-4.436-4.436Z" transform="translate(-7.164 -55)" fill="#ebebeb"/>
      <path id="Path_37" data-name="Path 37" d="M416.033,284.775H259.139a4.648,4.648,0,0,1-4.639-4.639V59.6a4.648,4.648,0,0,1,4.639-4.6H416.033a4.639,4.639,0,0,1,4.623,4.6V280.136A4.639,4.639,0,0,1,416.033,284.775ZM259.139,55.162A4.444,4.444,0,0,0,254.7,59.6V280.136a4.444,4.444,0,0,0,4.436,4.436H416.033a4.444,4.444,0,0,0,4.436-4.436V59.6a4.444,4.444,0,0,0-4.436-4.436Z" transform="translate(-47.719 -55)" fill="#ebebeb"/>
      <circle id="Ellipse_24" data-name="Ellipse 24" cx="35.807" cy="35.807" r="35.807" transform="translate(167.544 113.501) rotate(-9.22)" fill="#f0f0f0"/>
      <path id="Path_38" data-name="Path 38" d="M260.125,256.1c6.768-5.419,26.813-5.687,36.286,2.438s22.482,21.393,27.089,23.018,19.947-4.331,32.321-5.688,17.241,11.375,21.84,18.419,9.482,7.313,11.651,16.518,6.224,15.982,12.456,23.563,24.375,17.875,26.268,23.619H228.161L226,279.664C231.379,274.245,253.316,261.521,260.125,256.1Z" transform="translate(-42.375 -91.976)" fill="#ebebeb"/>
      <path id="Path_39" data-name="Path 39" d="M62.032,269.931c4.2-4.241,17.778-7.036,25.553-23.831s33.313-51.732,43.063-56.566,20.532-26,24.432-29.014,8.938,5.143,10.286,10.018c3.51,12.4,20.313,47.669,30.306,54.438s10.693,21.393,13.479,29.794,19.874,13.268,23.758,24.1,47.125,61.807,47.125,61.807H22C34.854,331.34,45.855,286.27,62.032,269.931Z" transform="translate(-4.125 -74.663)" fill="#f5f5f5"/>
      <path id="Path_40" data-name="Path 40" d="M175.711,174.229c0,4.168-1.259,23.473-5.6,28.169s-.512-5.777-7.841,0-10.563,17.688-22.856,21.848-11.188-6.321-5.232-12.285,13-16.429,18.606-19.5S175.711,161.407,175.711,174.229Z" transform="translate(-24.35 -76.729)" fill="#f0f0f0"/>
      <path id="Path_41" data-name="Path 41" d="M133.865,280.094c5.842-8.076-20.4,1.267-28.348-1.625s-1.8-6.858-13.366,3.25-31.59,19.866-20.759,23.294S122.994,295.085,133.865,280.094Z" transform="translate(-12.803 -96.29)" fill="#f0f0f0"/>
      <path id="Path_42" data-name="Path 42" d="M327.064,281.837c-4.485-5.363-9.612-15.438-16.25-17.2s-11.1-2.844-9.75,1.219S334.052,290.173,327.064,281.837Z" transform="translate(-56.404 -94.011)" fill="#f0f0f0"/>
      <path id="Path_43" data-name="Path 43" d="M414.153,315.63c-1.154-3.762-4.7-3.656-7.808-9.62s-7.719-16.112-15.307-16.518-19.6,2.576-9.474,10.156S418.167,328.76,414.153,315.63Z" transform="translate(-70.815 -98.96)" fill="#f0f0f0"/>
      <path id="Path_44" data-name="Path 44" d="M367.928,105.523H213.553c-19.5,0,35.206-4.062,65.268-10.831s32.5-8.938,42.518-1.625,39.813-8.938,54.169.813S393.652,105.523,367.928,105.523Z" transform="translate(-39.272 -61.282)" fill="#fafafa"/>
      <path id="Path_45" data-name="Path 45" d="M124.968,138.921c19.256,0,56.006-1.568,41.267-8.06s-25.651,6.5-32.086.983-16.851-6.289-25.5-.983-6.078-2.949-16.5,0c-14.625,4.136-61.458,8.06-21.6,8.06Z" transform="translate(-10.284 -68.55)" fill="#fafafa"/>
      <path id="Path_46" data-name="Path 46" d="M328.871,225.558c14.706,0,42.762-1.2,31.509-6.151s-19.581,4.948-24.489.747-12.87-4.8-19.5-.747-4.639-2.251-12.6,0c-11.139,3.153-46.914,6.151-16.486,6.151Z" transform="translate(-51.622 -85.312)" fill="#fafafa"/>
    </g>
    <g id="freepik--Shadow--inject-16" transform="translate(45.589 339.31)">
      <ellipse id="freepik--path--inject-16" cx="157.536" cy="9.198" rx="157.536" ry="9.198" fill="#f5f5f5"/>
    </g>
    <g id="freepik--Car--inject-16" transform="translate(36.745 221.782)">
      <path id="Path_47" data-name="Path 47" d="M230.611,397.248c10.181,0,18.436-16.348,18.436-36.514s-8.255-36.514-18.436-36.514H207v73.028Z" transform="translate(-75.558 -272.261)" fill="#263238"/>
      <ellipse id="Ellipse_25" data-name="Ellipse 25" cx="18.436" cy="36.514" rx="18.436" ry="36.514" transform="translate(112.885 51.959)" fill="#263238"/>
      <path id="Path_48" data-name="Path 48" d="M396.972,397.248c10.181,0,18.427-16.348,18.427-36.514s-8.214-36.514-18.427-36.514H373.32v73.028Z" transform="translate(-106.743 -272.261)" fill="#263238"/>
      <ellipse id="Ellipse_26" data-name="Ellipse 26" cx="18.436" cy="36.514" rx="18.436" ry="36.514" transform="translate(248.052 51.959)" fill="#263238"/>
      <path id="Path_49" data-name="Path 49" d="M79.443,376l-12.626-3.112a15.064,15.064,0,0,1-9.929-7.971h0a15.1,15.1,0,0,0-3.5-4.591l-3.1-2.763a15.1,15.1,0,0,1-4.989-12.716L47,326.969a15.1,15.1,0,0,1,10.741-13.041l9.027-2.665,32.565-2.324Z" transform="translate(-45.225 -269.396)" fill="#04145c"/>
      <path id="Path_50" data-name="Path 50" d="M115.774,397.248c10.181,0,18.436-16.348,18.436-36.514s-8.255-36.514-18.436-36.514H92.13v73.028Z" transform="translate(-54.02 -272.261)" fill="#263238"/>
      <ellipse id="Ellipse_27" data-name="Ellipse 27" cx="18.436" cy="36.514" rx="18.436" ry="36.514" transform="translate(19.585 51.959)" fill="#263238"/>
      <ellipse id="Ellipse_28" data-name="Ellipse 28" cx="12.935" cy="28.86" rx="12.935" ry="28.86" transform="translate(25.086 59.613)" fill="#04145c"/>
      <path id="Path_51" data-name="Path 51" d="M275.268,366.87,307.1,295.728S259.473,260.27,199.039,260.27c-97.947,0-94.583,13.2-127.359,41.868l14.308,10.091c25.456,0,27.576,40.349,31.647,51.7a4.412,4.412,0,0,0,4.16,2.941H275.268" transform="translate(-50.185 -260.27)" fill="#04145c"/>
      <path id="Path_52" data-name="Path 52" d="M282.142,397.248c10.181,0,18.428-16.348,18.428-36.514s-8.247-36.514-18.428-36.514H258.49v73.028Z" transform="translate(-85.212 -272.261)" fill="#263238"/>
      <ellipse id="Ellipse_29" data-name="Ellipse 29" cx="18.436" cy="36.514" rx="18.436" ry="36.514" transform="translate(154.753 51.959)" fill="#263238"/>
      <ellipse id="Ellipse_30" data-name="Ellipse 30" cx="12.935" cy="28.86" rx="12.935" ry="28.86" transform="translate(160.254 59.613)" fill="#04145c"/>
      <path id="Path_53" data-name="Path 53" d="M286.874,369.173c-2.933-13.325-16.957-48.75-33.768-48.75L234.89,303.88H337.7c7.118,0,38.732,4.371,56.648,16.5,14.471,9.8,16.25,24.676,18.33,46.41.431,4.436-3.453,8.247-8.361,8.255-41.194,0-91.049.154-109.2.211A8.171,8.171,0,0,1,286.874,369.173Z" transform="translate(-80.787 -268.447)" fill="#04145c"/>
      <path id="Path_54" data-name="Path 54" d="M328,296.6H260.972a9.49,9.49,0,0,1-7.873-4.136c-7.459-11.05-20.662-22.246-30.339-27.552C290.523,264.91,328,296.6,328,296.6Z" transform="translate(-78.513 -261.14)" fill="#fff" opacity="0.8"/>
      <path id="Path_55" data-name="Path 55" d="M198.81,268.231c8.125,5.883,17.371,15,22.563,24.058a2.86,2.86,0,0,1-2.437,4.3H109.093c-11.651,0-7.784-29.023,53.081-31.2,5.736-.5,19.11-.512,26.5-.479A17.4,17.4,0,0,1,198.81,268.231Z" transform="translate(-56.22 -261.138)" fill="#fff" opacity="0.8"/>
      <path id="Path_56" data-name="Path 56" d="M312.634,372l35.206,2.657a2.178,2.178,0,0,1,2.015,2.177v2.438a2.178,2.178,0,0,1-2.178,2.178H312.5a2.186,2.186,0,0,1-2.186-2.178v-5.062a2.186,2.186,0,0,1,2.324-2.21Z" transform="translate(-94.928 -281.218)" fill="#263238"/>
      <path id="Path_57" data-name="Path 57" d="M448.264,372.589l-9.669,1.95a2.178,2.178,0,0,0-1.755,2.137v2.641a2.178,2.178,0,0,0,2.186,2.177h10.238a2.177,2.177,0,0,0,2.169-2.437l-.544-4.583a2.186,2.186,0,0,0-2.624-1.885Z" transform="translate(-118.653 -281.321)" fill="#263238"/>
      <path id="Path_58" data-name="Path 58" d="M337.486,321.029,288.33,318.64s-.5,8.71,17.712,10.563A47.938,47.938,0,0,0,337.486,321.029Z" transform="translate(-90.807 -271.214)" fill="#fff" opacity="0.8"/>
      <path id="Path_59" data-name="Path 59" d="M47.233,330.138a14.966,14.966,0,0,1,1.016-4.16l3.331-.1s.154,12.781-4.672,11.976a2.369,2.369,0,0,1-.4-.1Z" transform="translate(-45.466 -272.572)" opacity="0.3"/>
      <path id="Path_60" data-name="Path 60" d="M422.966,320.62a56.054,56.054,0,0,1,4.834,2.917,34.742,34.742,0,0,1,6.459,5.59,19.386,19.386,0,0,1-2.088.471c-10.912,1.877-18.842-8.2-18.842-8.2Z" transform="translate(-114.244 -271.586)" fill="#fff" opacity="0.8"/>
      <path id="Path_61" data-name="Path 61" d="M365.958,338.48h34.783a5.972,5.972,0,0,1,3.4,1.089l6.078,4.266a6.086,6.086,0,0,1,2.559,4.152l1.552,11.513a5.184,5.184,0,0,1-5.192,5.98h-37.2a6.118,6.118,0,0,1-5.363-3.331L359.637,348.6a5.476,5.476,0,0,1,.439-5.907l1.739-2.234A5.192,5.192,0,0,1,365.958,338.48Z" transform="translate(-104.053 -274.934)" fill="#263238"/>
      <path id="Path_62" data-name="Path 62" d="M141.441,373.05h68.023a1.625,1.625,0,0,1,1.625,1.763l-.349,3.957a1.625,1.625,0,0,1-1.625,1.479H141.084a1.625,1.625,0,0,1-1.625-1.763l.349-3.965A1.625,1.625,0,0,1,141.441,373.05Z" transform="translate(-62.893 -281.416)" opacity="0.1"/>
      <path id="Path_63" data-name="Path 63" d="M166.707,264.728l4.071-.788L162.45,300.5h-3.9Z" transform="translate(-66.473 -260.958)" fill="#04145c"/>
      <path id="Path_64" data-name="Path 64" d="M183.556,314H169.622l-.357,1.462a2.08,2.08,0,0,0,2.072,2.746h8.426a3.737,3.737,0,0,0,3.429-2.746Z" transform="translate(-68.462 -270.344)" fill="#263238"/>
      <path id="Path_65" data-name="Path 65" d="M124.568,314H110.642l-.358,1.462a2.08,2.08,0,0,0,2.072,2.746h8.426a3.738,3.738,0,0,0,3.429-2.746Z" transform="translate(-57.403 -270.344)" fill="#263238"/>
      <path id="Path_66" data-name="Path 66" d="M161.117,355.967a.463.463,0,0,1-.463-.455l-1.024-47.872a.479.479,0,0,1,.455-.479h0a.463.463,0,0,1,.463.455l1.008,47.881a.471.471,0,0,1-.455.471Z" transform="translate(-66.676 -269.062)" opacity="0.1"/>
    </g>
    <g id="freepik--Character--inject-16" transform="translate(114.895 166.086)">
      <path id="Path_67" data-name="Path 67" d="M193.973,407.594l-4.8-.073L187.79,396.39l4.8.073Z" transform="translate(-150.106 -230.097)" fill="#ff8b7b"/>
      <path id="Path_68" data-name="Path 68" d="M158.417,407.093l-4.387-2.446L157.3,394.32l4.387,2.446Z" transform="translate(-143.776 -229.709)" fill="#ff8b7b"/>
      <path id="Path_69" data-name="Path 69" d="M151.249,406.013l5.086,2.892a.406.406,0,0,1,.195.479l-1.284,4.184a.7.7,0,0,1-1.032.39c-1.625-.951-2.762-1.731-4.826-2.9-1.268-.715-5.168-2.754-6.914-3.746s-1-2.86-.2-2.608c3.616,1.121,6.589,1.528,8.125,1.186a1.178,1.178,0,0,1,.845.122Z" transform="translate(-141.409 -231.651)" fill="#263238"/>
      <path id="Path_70" data-name="Path 70" d="M186.689,409.41l5.241.081a.414.414,0,0,1,.406.333l.878,4.282a.691.691,0,0,1-.7.812c-1.893-.057-4.623-.211-7-.252-2.779-.041-5.184.073-8.442,0-1.966,0-2.437-2.031-1.625-2.2,3.77-.764,6.833-.812,10.108-2.754a2.21,2.21,0,0,1,1.129-.3Z" transform="translate(-147.721 -232.538)" fill="#263238"/>
      <path id="Path_71" data-name="Path 71" d="M179.859,235.173a100.688,100.688,0,0,1-8.6,6.3c-1.495.967-3.014,1.926-4.631,2.8a31.071,31.071,0,0,1-5.306,2.381,13.964,13.964,0,0,1-1.674.422c-.309.057-.666.1-1.007.13a6.968,6.968,0,0,1-1.162,0,6.354,6.354,0,0,1-2.437-.707,6.556,6.556,0,0,1-1.9-1.527,9.108,9.108,0,0,1-1.771-3.372,16.8,16.8,0,0,1-.561-3.055,34.377,34.377,0,0,1,1.048-10.993l3.567.5a47.052,47.052,0,0,0,.943,9.612,10.977,10.977,0,0,0,.642,1.95,3.006,3.006,0,0,0,.739,1.113c.1.065.138.057.146,0s0-.041,0-.057a6.9,6.9,0,0,0,1.2-.382,27.914,27.914,0,0,0,3.989-2.121c1.365-.812,2.738-1.763,4.063-2.722,2.714-1.9,5.452-3.949,8.06-5.964Z" transform="translate(-143.158 -198.441)" fill="#ff8b7b"/>
      <path id="Path_72" data-name="Path 72" d="M183.556,232.612c-2.186,4.932-10.611,10.034-15.283,12.188-1.381.634-1.2,2.486-2.023,1.682,0,0-3.6-6.606-3.6-7.954s1.194-.544,2.169-1.454c3.51-3.25,10.855-10.392,15.438-11.18C186.253,224.837,185.6,228.014,183.556,232.612Z" transform="translate(-145.392 -198.091)" fill="#04145c"/>
      <path id="Path_73" data-name="Path 73" d="M162.55,240.375c-.463-.682-2.381,1.105-2.99,1.853s1.064,3.461,1.568,4.875-.488,2.917,1.056,3.136c.813.114,3.128-.187,3.575-.812C166.807,248.085,163.663,242.016,162.55,240.375Z" transform="translate(-144.788 -200.815)" fill="#263238"/>
      <path id="Path_74" data-name="Path 74" d="M176.84,242.814c3.932-2.478,7.963-5.744,9.384-8.937.089-.219.2-.423.276-.634l.081-.812C181.244,233.34,177.62,238.735,176.84,242.814Z" transform="translate(-148.052 -199.354)" opacity="0.2"/>
      <path id="Path_75" data-name="Path 75" d="M154.85,228.464l3.1-4.591-5.054-2.064s-2.86,3.25-.812,6.086Z" transform="translate(-143.271 -197.363)" fill="#ff8b7b"/>
      <path id="Path_76" data-name="Path 76" d="M159.6,218.174l-4.648-.154-1.706,3.039,5.054,2.064Z" transform="translate(-143.629 -196.653)" fill="#ff8b7b"/>
      <path id="Path_77" data-name="Path 77" d="M187.79,396.39l.715,5.736,4.8.081-.715-5.736Z" transform="translate(-150.106 -230.097)" opacity="0.2"/>
      <path id="Path_78" data-name="Path 78" d="M162.059,396.766l-4.387-2.446-1.682,5.33,4.379,2.446Z" transform="translate(-144.143 -229.709)" opacity="0.2"/>
      <path id="Path_79" data-name="Path 79" d="M210.225,227.5c-5.176,18.233-4.128,37.578-4.6,41.494-3.754-.268-17.875-1.324-25.594-1.9-2.437-27.422,3.364-41.348,3.364-41.348s1.625-.317,3.884-.544c.7-.073,1.454-.138,2.243-.179.439,0,.878-.041,1.324-.049a94.827,94.827,0,0,1,10.887.813c.683.081,1.373.187,2.048.293s1.235.219,1.812.333C208.2,226.928,210.225,227.5,210.225,227.5Z" transform="translate(-148.539 -197.956)" fill="#04145c"/>
      <path id="Path_80" data-name="Path 80" d="M193.091,225c-2.153,1.154-2.779,5.379,1.389,5.541a12.071,12.071,0,0,0,9.5-4.737Z" transform="translate(-150.784 -197.961)" fill="#263238"/>
      <path id="Path_81" data-name="Path 81" d="M210.564,237.71c-.455,1.763.065,9.807,1.909,11.8.252-2.576.585-5.273,1.032-8.019Z" transform="translate(-154.347 -200.344)" opacity="0.2"/>
      <path id="Path_82" data-name="Path 82" d="M203.988,210.79c-.943,3.445-2.1,9.807.171,12.326a11.233,11.233,0,0,1-8.564,2.819c-4.168-.162-3.526-2.194-2.324-3.624,3.981-.642,4.063-3.551,3.616-6.321Z" transform="translate(-150.964 -195.297)" fill="#ff8b7b"/>
      <path id="Path_83" data-name="Path 83" d="M202.139,213.4l-4.209,3.079a11.587,11.587,0,0,1,.195,1.958c1.5-.106,3.681-1.625,3.949-3.144A5.3,5.3,0,0,0,202.139,213.4Z" transform="translate(-152.007 -195.786)" opacity="0.2"/>
      <path id="Path_84" data-name="Path 84" d="M192.814,207.114s-2.941-4.136-2.08-7.369C191.839,195.609,198.5,200.679,192.814,207.114Z" transform="translate(-150.628 -192.945)" fill="#263238"/>
      <path id="Path_85" data-name="Path 85" d="M204.465,202.61c-.65,4.721-.812,7.516-3.356,9.75-3.876,3.4-9.563.813-10.343-4.062-.707-4.331.463-11.326,5.249-12.862a6.5,6.5,0,0,1,8.45,7.174Z" transform="translate(-150.628 -192.357)" fill="#ff8b7b"/>
      <path id="Path_86" data-name="Path 86" d="M193.321,210.392c0,.723-.666.894-1.2,1.219a3.185,3.185,0,0,0-.918.983s-.691-.227-.406-1.454S193.321,209.717,193.321,210.392Z" transform="translate(-150.656 -195.15)" fill="#263238"/>
      <path id="Path_87" data-name="Path 87" d="M194.33,210.41c0,1.243,1.373,1.073,2.438,1.414a4.42,4.42,0,0,1,2.177,1.511,1.771,1.771,0,0,0-.3-1.9C197.312,209.687,194.33,209.735,194.33,210.41Z" transform="translate(-151.332 -195.144)" fill="#263238"/>
      <path id="Path_88" data-name="Path 88" d="M200.8,197.708c-2.957.878-11.253,1.8-10.238-2.437,1.414-5.923,5.151-2.836,5.688-1.991,2.381-1.723,12.886-.219,10.79,3.185,2.283.349,3.607,2.836,1.966,4.063s-3.632,6.232-4.729,6.086a14.722,14.722,0,0,1-3.851-1.081l2.259-3.023S199.945,199.91,200.8,197.708Z" transform="translate(-150.609 -191.722)" fill="#263238"/>
      <path id="Path_89" data-name="Path 89" d="M209.55,197.946c1.625-.4,3.144-.577,4.461.642C213.913,196.54,211.11,196.256,209.55,197.946Z" transform="translate(-154.186 -192.682)" fill="#263238"/>
      <path id="Path_90" data-name="Path 90" d="M208.726,210.233a4.493,4.493,0,0,1-2.958,1.779c-1.576.228-2.153-1.227-1.544-2.6.544-1.243,2.023-2.852,3.518-2.437a2.039,2.039,0,0,1,.983,3.258Z" transform="translate(-153.142 -194.569)" fill="#ff8b7b"/>
      <path id="Path_91" data-name="Path 91" d="M184.056,378.585l8.125.122s-4.688-32.1-3.957-47.036c.219-4.542-.512-10.9.691-17.7,1.519-8.588,2.251-12.009,4.209-22.856,1.4-7.735,2.641-13,2.641-13l-16.827-1.251s-5.5,38.683-5.338,53.333C173.77,345.378,184.056,378.585,184.056,378.585Z" transform="translate(-147.444 -207.685)" fill="#04145c"/>
      <path id="Path_92" data-name="Path 92" d="M184.056,378.585l8.125.122s-4.688-32.1-3.957-47.036c.219-4.542-.512-10.9.691-17.7,1.519-8.588,2.251-12.009,4.209-22.856,1.4-7.735,2.641-13,2.641-13l-16.827-1.251s-5.5,38.683-5.338,53.333C173.77,345.378,184.056,378.585,184.056,378.585Z" transform="translate(-147.444 -207.685)" opacity="0.6"/>
      <path id="Path_93" data-name="Path 93" d="M188.918,322.53a57.924,57.924,0,0,0-.707,10.774c-1.4,3.949-2.616,7.694-3.469,11.026-1.487,5.826-3.843,14.666-6.134,23.156-2.494-9.945-4.924-21.442-5-28.771Z" transform="translate(-147.447 -216.248)" opacity="0.2"/>
      <path id="Path_94" data-name="Path 94" d="M184.464,277.64s-12.09,30.55-16.673,43.875c-5.021,14.56-13.122,53.861-13.122,53.861l7.646,4.331s11.911-32.394,16.843-46.573c5.622-16.153,21.125-41.673,21.824-54.226Z" transform="translate(-143.896 -207.831)" fill="#04145c"/>
      <path id="Path_95" data-name="Path 95" d="M184.464,277.64s-12.09,30.55-16.673,43.875c-5.021,14.56-13.122,53.861-13.122,53.861l7.646,4.331s11.911-32.394,16.843-46.573c5.622-16.153,21.125-41.673,21.824-54.226Z" transform="translate(-143.896 -207.831)" opacity="0.6"/>
      <path id="Path_96" data-name="Path 96" d="M153.43,396.651l9,5.111,1.528-2.689-9.969-5.883Z" transform="translate(-143.663 -229.497)" fill="#04145c"/>
      <path id="Path_97" data-name="Path 97" d="M184.959,401.505l9.685.154.049-3.128-10.823-.341Z" transform="translate(-149.371 -230.434)" fill="#04145c"/>
      <path id="Path_98" data-name="Path 98" d="M199.679,205.141c0,.39-.26.682-.512.666s-.431-.349-.4-.731.252-.682.5-.666S199.712,204.759,199.679,205.141Z" transform="translate(-152.163 -194.1)" fill="#263238"/>
      <path id="Path_99" data-name="Path 99" d="M193.359,204.741c0,.39-.252.682-.5.666s-.439-.349-.406-.731.252-.682.5-.666S193.392,204.359,193.359,204.741Z" transform="translate(-150.978 -194.025)" fill="#263238"/>
      <path id="Path_100" data-name="Path 100" d="M194.516,205.28a13.811,13.811,0,0,1-2.1,3.161,2.234,2.234,0,0,0,1.82.488Z" transform="translate(-150.974 -194.264)" fill="#ff5652"/>
      <path id="Path_101" data-name="Path 101" d="M194.345,212.531a3.161,3.161,0,0,0,2.275-1.1.112.112,0,0,0-.154-.163,3.071,3.071,0,0,1-2.584,1.008.122.122,0,0,0-.122.106.106.106,0,0,0,.106.122A3.507,3.507,0,0,0,194.345,212.531Z" transform="translate(-151.225 -195.38)" fill="#263238"/>
      <path id="Path_102" data-name="Path 102" d="M200.468,203.379a.268.268,0,0,0,.106,0,.228.228,0,0,0,.065-.317,2.251,2.251,0,0,0-1.771-1.072.219.219,0,0,0-.227.227.227.227,0,0,0,.227.228h0a1.8,1.8,0,0,1,1.389.861A.227.227,0,0,0,200.468,203.379Z" transform="translate(-152.14 -193.647)" fill="#263238"/>
      <path id="Path_103" data-name="Path 103" d="M191.182,202.523a.244.244,0,0,0,.2-.081,1.8,1.8,0,0,1,1.5-.658.229.229,0,0,0,.057-.455,2.259,2.259,0,0,0-1.9.813.228.228,0,0,0,0,.325A.276.276,0,0,0,191.182,202.523Z" transform="translate(-150.703 -193.522)" fill="#263238"/>
      <path id="Path_104" data-name="Path 104" d="M151.139,405.922a5.183,5.183,0,0,0,1.178.463.1.1,0,0,0,.114,0,.13.13,0,0,0,0-.13c-.1-.179-.975-1.771-1.576-1.8a.366.366,0,0,0-.325.187.666.666,0,0,0-.089.634A1.479,1.479,0,0,0,151.139,405.922Zm.967.163c-.812-.26-1.316-.593-1.438-.91a.463.463,0,0,1,.065-.439.146.146,0,0,1,.13-.081C151.171,404.671,151.74,405.459,152.106,406.085Z" transform="translate(-143.094 -231.61)" fill="#04145c"/>
      <path id="Path_105" data-name="Path 105" d="M152.625,406.251h.057a.106.106,0,0,0,.1-.065c0-.057.609-1.316.349-1.983a.634.634,0,0,0-.349-.374h0a.39.39,0,0,0-.463.081c-.349.422,0,1.8.268,2.283A.1.1,0,0,0,152.625,406.251Zm.114-2.169a.406.406,0,0,1,.179.219,2.738,2.738,0,0,1-.252,1.584c-.244-.569-.382-1.56-.171-1.8,0,0,.057-.081.2,0h0Z" transform="translate(-143.427 -231.484)" fill="#04145c"/>
      <path id="Path_106" data-name="Path 106" d="M188.111,409.961a.112.112,0,0,0,.016-.2c-.211-.122-2.129-1.129-2.714-.812a.374.374,0,0,0-.2.3h0a.666.666,0,0,0,.2.561c.52.471,1.9.3,2.673.163Zm-2.551-.812a4.68,4.68,0,0,1,2.161.666,3.055,3.055,0,0,1-2.145-.162.422.422,0,0,1-.13-.366.13.13,0,0,1,.073-.122Z" transform="translate(-149.623 -232.439)" fill="#04145c"/>
      <path id="Path_107" data-name="Path 107" d="M188.381,409.708h0a.13.13,0,0,0,.049-.106,3.25,3.25,0,0,0-.723-1.861.813.813,0,0,0-.626-.2h0c-.309,0-.406.179-.423.309-.1.544,1.032,1.625,1.625,1.869A.138.138,0,0,0,188.381,409.708Zm-1.365-1.934h.122a.593.593,0,0,1,.455.146,2.625,2.625,0,0,1,.609,1.495c-.585-.366-1.349-1.194-1.292-1.519a.138.138,0,0,1,.106-.122ZM187.122,407.645Z" transform="translate(-149.892 -232.186)" fill="#04145c"/>
      <path id="Path_108" data-name="Path 108" d="M217.294,231.65c1.056,1.966,1.966,3.908,2.909,5.883s1.763,3.989,2.592,6.021,1.576,4.063,2.267,6.24l.5,1.625.439,1.625c.146.552.26,1.137.39,1.7l.1.439.089.585a10.612,10.612,0,0,1,.106,1.073,22.327,22.327,0,0,1-.154,3.681c-.13,1.154-.293,2.267-.488,3.364-.4,2.194-.886,4.331-1.43,6.443a126.9,126.9,0,0,1-3.892,12.431l-3.469-.959c.723-4.16,1.422-8.377,2.039-12.529.3-2.072.577-4.144.764-6.191.1-1.016.171-2.023.2-3.006a18.288,18.288,0,0,0-.073-2.722,1.826,1.826,0,0,0-.081-.512l-.049-.211-.1-.341c-.146-.463-.26-.926-.423-1.4l-.479-1.414-.528-1.422c-.723-1.909-1.536-3.811-2.356-5.688s-1.731-3.8-2.633-5.687-1.828-3.8-2.722-5.639Z" transform="translate(-154.422 -199.208)" fill="#ff8b7b"/>
      <path id="Path_109" data-name="Path 109" d="M215.655,227.99c3.445,1.073,8,15.356,9.807,21.434,1.146,1.032.569,2.917.569,2.917l-7.012,3.1c-1.625-.812-2.633-2.511-2.023-3.348-3.673-6.931-6.557-12.114-7.946-16.25C206.993,229.712,210.357,226.292,215.655,227.99Z" transform="translate(-153.977 -198.44)" fill="#04145c"/>
      <path id="Path_110" data-name="Path 110" d="M219.318,259.106c-.707.422,1.462,2.649,2.161,3.3s3.031-1.048,4.485-1.471,2.884.666,3.193-.861c.171-.812,0-3.136-.561-3.624C227.272,255.328,221.024,258.1,219.318,259.106Z" transform="translate(-155.991 -203.809)" fill="#263238"/>
      <path id="Path_111" data-name="Path 111" d="M218.986,290.85l-3.746,3.12,4.664,3.364s3.063-3.25,1.69-5.184Z" transform="translate(-155.252 -210.308)" fill="#ff8b7b"/>
      <path id="Path_112" data-name="Path 112" d="M212.61,299.053l4.615,2.242,2.186-3.242-4.664-3.364Z" transform="translate(-154.759 -211.028)" fill="#ff8b7b"/>
    </g>
  </g>
</svg>
